<svg width="38" height="38" viewBox="0 0 38 38" fill="none" xmlns="http://www.w3.org/2000/svg">
<g clip-path="url(#clip0_115_2061)">
<path d="M5.66837 33.5603H28.2451L27.1669 30.0691L29.7461 32.2826L32.11 34.4011L36.4167 38V3.91875C36.309 1.80025 34.485 0 32.224 0L5.67629 0.00475C3.41687 0.00475 1.58337 1.80817 1.58337 3.92667V29.64C1.58337 31.8741 3.41371 33.5603 5.66837 33.5603V33.5603ZM22.3694 8.99808L22.3171 9.01708L22.3361 8.99808H22.3694ZM10.287 11.0073C13.1892 8.89517 15.8793 8.9965 15.8793 8.9965L16.0962 9.21025C12.5448 10.0573 10.9345 11.6438 10.9345 11.6438C10.9345 11.6438 11.3652 11.4333 12.1173 11.1118C16.9005 9.23083 22.124 9.367 26.9595 11.7483C26.9595 11.7483 25.346 10.2648 22.0131 9.31475L22.3076 9.025C22.7684 9.02658 25.2067 9.11208 27.816 11.02C27.816 11.02 30.7357 16.0075 30.7357 22.135C30.6391 22.0178 28.9244 24.7728 24.5116 24.8678C24.5116 24.8678 23.7643 24.0223 23.2323 23.2845C25.8131 22.5435 26.779 21.0615 26.779 21.0615C25.9319 21.5951 25.1592 21.9117 24.5322 22.2284C23.568 22.6527 22.6021 22.8618 21.6379 23.0755C17.0715 23.8165 14.5081 22.5767 12.0856 21.5935L11.2575 21.1723C11.2575 21.1723 12.2218 22.6543 14.6997 23.3953C14.049 24.1379 13.4045 24.9818 13.4045 24.9818C8.99337 24.8773 7.38471 22.1223 7.38471 22.1223C7.38471 15.9853 10.287 11.0073 10.287 11.0073V11.0073Z" fill="white"/>
<path d="M22.6543 20.2208C23.7801 20.2208 24.6968 19.2708 24.6968 18.0991C24.6968 16.9354 23.7848 15.9854 22.6543 15.9854V15.9901C21.5333 15.9901 20.615 16.9369 20.6118 18.1086C20.6118 19.2708 21.5286 20.2208 22.6543 20.2208Z" fill="white"/>
<path d="M15.3425 20.2208C16.4683 20.2208 17.385 19.2708 17.385 18.0991C17.385 16.9354 16.4746 15.9854 15.3489 15.9854L15.3425 15.9901C14.2168 15.9901 13.3 16.9369 13.3 18.1086C13.3 19.2708 14.2168 20.2208 15.3425 20.2208Z" fill="white"/>
</g>
<defs>
<clipPath id="clip0_115_2061">
<rect width="38" height="38" fill="white"/>
</clipPath>
</defs>
</svg>
