<svg width="35" height="34" viewBox="0 0 35 34" fill="none" xmlns="http://www.w3.org/2000/svg">
<g clip-path="url(#clip0_115_2068)">
<path d="M20.5762 16.8789C20.5762 18.5174 19.1988 19.8459 17.5 19.8459C15.8012 19.8459 14.4238 18.5174 14.4238 16.8789C14.4238 15.2403 15.8012 13.9119 17.5 13.9119C19.1988 13.9119 20.5762 15.2403 20.5762 16.8789Z" fill="white"/>
<path d="M22.6953 7.91211H12.3047C10.043 7.91211 8.20312 9.68664 8.20312 11.8681V21.89C8.20312 24.0714 10.043 25.8459 12.3047 25.8459H22.6953C24.957 25.8459 26.7969 24.0714 26.7969 21.89V11.8681C26.7969 9.68664 24.957 7.91211 22.6953 7.91211ZM17.5 21.824C14.673 21.824 12.373 19.6057 12.373 16.879C12.373 14.1523 14.673 11.934 17.5 11.934C20.327 11.934 22.627 14.1523 22.627 16.879C22.627 19.6057 20.327 21.824 17.5 21.824ZM23.3789 12.1978C22.8125 12.1978 22.3535 11.755 22.3535 11.2088C22.3535 10.6625 22.8125 10.2198 23.3789 10.2198C23.9453 10.2198 24.4043 10.6625 24.4043 11.2088C24.4043 11.755 23.9453 12.1978 23.3789 12.1978Z" fill="white"/>
<path d="M25.7715 0H9.22852C4.14001 0 0 3.99308 0 8.90099V24.8568C0 29.7647 4.14001 33.7578 9.22852 33.7578H25.7715C30.86 33.7578 35 29.7647 35 24.8568V8.90099C35 3.99308 30.86 0 25.7715 0ZM28.8477 21.8898C28.8477 25.1618 26.0876 27.8238 22.6953 27.8238H12.3047C8.91235 27.8238 6.15234 25.1618 6.15234 21.8898V11.868C6.15234 8.59604 8.91235 5.93399 12.3047 5.93399H22.6953C26.0876 5.93399 28.8477 8.59604 28.8477 11.868V21.8898Z" fill="white"/>
</g>
<defs>
<clipPath id="clip0_115_2068">
<rect width="35" height="33.7578" fill="white"/>
</clipPath>
</defs>
</svg>
