<svg width="13" height="9" viewBox="0 0 13 9" fill="none" xmlns="http://www.w3.org/2000/svg">
<path d="M12.6925 1.48809C12.9621 1.1736 12.9256 0.700124 12.6111 0.430558C12.2966 0.160991 11.8232 0.197412 11.5536 0.511906L12.6925 1.48809ZM6.56148 7.4885L5.99203 7.97659C6.13452 8.14283 6.34253 8.2385 6.56148 8.2385C6.78042 8.2385 6.98843 8.14283 7.13092 7.97659L6.56148 7.4885ZM1.56935 0.511907C1.29978 0.197412 0.826304 0.160991 0.51181 0.430558C0.197316 0.700124 0.160894 1.1736 0.430461 1.48809L1.56935 0.511907ZM11.5536 0.511906L5.99203 7.00041L7.13092 7.97659L12.6925 1.48809L11.5536 0.511906ZM7.13092 7.00041L1.56935 0.511907L0.430461 1.48809L5.99203 7.97659L7.13092 7.00041Z" fill="white"/>
</svg>
