<svg width="135" height="12" viewBox="0 0 135 12" fill="none" xmlns="http://www.w3.org/2000/svg">
<path d="M19.1783 0.270508H23.9199C26.3056 0.270508 28.0101 1.54075 28.0101 3.95769C28.0101 5.5374 27.2352 6.65292 26.0118 7.21067L28.6458 11.8119H25.9494L23.6092 7.62809H21.5797V11.8119H19.1783V0.270508V0.270508ZM23.9343 5.5386C24.9418 5.5386 25.6075 4.90408 25.6075 3.9589C25.6075 2.99812 24.9406 2.36239 23.9343 2.36239H21.5797V5.5386H23.9343Z" fill="white"/>
<path d="M49.1712 0.270508V11.8131H46.7698V4.37631L43.2841 8.86954H42.9747L39.489 4.20598V11.8131H37.0876V0.270508H39.4122L43.115 5.15117L46.849 0.270508H49.1712Z" fill="white"/>
<path d="M104.038 0V11.5426H102.179L96.9885 4.55561V11.5426H94.5872V0H96.4308L101.636 6.94137V0H104.038Z" fill="white"/>
<path d="M113.022 0H115.423V11.5426H113.022V0Z" fill="white"/>
<path d="M130.669 0.00146484H127.492L123.556 11.5428H126.096L129.089 2.41721L132.062 11.5428H134.603L130.669 0.00146484Z" fill="white"/>
<path d="M7.11289 0.272461H3.93668L0 11.8138H2.54049L5.53318 2.68821L8.50668 11.8138H11.0472L7.11289 0.272461Z" fill="white"/>
<path fill-rule="evenodd" clip-rule="evenodd" d="M80.2301 0.0854492C76.7288 0.0854492 74.1104 2.64153 74.1104 6.03485C74.1104 9.42696 76.7444 11.9998 80.2301 11.9998C83.7158 11.9998 86.3498 9.42816 86.3498 6.03485C86.3498 2.64153 83.7313 0.0854492 80.2301 0.0854492Z" fill="white"/>
<path fill-rule="evenodd" clip-rule="evenodd" d="M63.4189 0.100099C60.1553 0.317194 57.768 2.79394 57.768 6.03401C57.768 9.42613 60.402 11.999 63.8877 11.999C65.6784 11.999 67.2443 11.3203 68.3438 10.2002C67.9171 10.301 67.4722 10.3544 67.0147 10.3544C63.835 10.3544 61.2572 7.77664 61.2572 4.59687C61.2572 2.77748 62.1012 1.15519 63.4189 0.100099Z" fill="white"/>
</svg>
