<svg width="22" height="23" viewBox="0 0 22 23" fill="none" xmlns="http://www.w3.org/2000/svg">
<path fill-rule="evenodd" clip-rule="evenodd" d="M15.4474 8.47368C15.4474 12.3251 12.3251 15.4474 8.47368 15.4474C4.62222 15.4474 1.5 12.3251 1.5 8.47368C1.5 4.62222 4.62222 1.5 8.47368 1.5C12.3251 1.5 15.4474 4.62222 15.4474 8.47368ZM13.7868 15.0751C12.3335 16.2463 10.4855 16.9474 8.47368 16.9474C3.7938 16.9474 0 13.1536 0 8.47368C0 3.7938 3.7938 0 8.47368 0C13.1536 0 16.9474 3.7938 16.9474 8.47368C16.9474 10.6041 16.1612 12.5508 14.8632 14.0396C14.8912 14.0639 14.9179 14.0906 14.9428 14.1196L21.2297 21.4544C21.4993 21.7689 21.4629 22.2424 21.1484 22.512C20.8339 22.7815 20.3604 22.7451 20.0909 22.4306L13.8039 15.0958C13.798 15.089 13.7923 15.0821 13.7868 15.0751Z" fill="white" fill-opacity="0.79"/>
</svg>
